<svg xmlns="http://www.w3.org/2000/svg" viewBox="0 0 128 128" width="128" height="128" role="img" aria-label="Appuntamento">
<defs>
<radialGradient id="bg" cx="35%" cy="25%" r="80%"><stop offset="0" stop-color="#F44336"/><stop offset=".55" stop-color="#B00000"/><stop offset="1" stop-color="#B00000"/></radialGradient>
<linearGradient id="pencil" x1="0" y1="0" x2="1" y2="1"><stop offset="0" stop-color="#90CAF9"/><stop offset="1" stop-color="#0D47A1"/></linearGradient>
<filter id="shadow" x="-30%" y="-30%" width="160%" height="160%"><feDropShadow dx="0" dy="4" stdDeviation="3" flood-color="#000" flood-opacity=".25"/></filter>
</defs>
<circle cx="64" cy="64" r="60" fill="url(#bg)"/>
<circle cx="64" cy="64" r="57" fill="none" stroke="white" stroke-width="4" opacity=".9"/>
<circle cx="64" cy="64" r="50" fill="none" stroke="rgba(255,255,255,.35)" stroke-width="2"/>
<ellipse cx="43" cy="27" rx="23" ry="10" fill="white" opacity=".22" transform="rotate(-28 43 27)"/>
<g filter="url(#shadow)"><rect x="34" y="34" width="62" height="66" rx="8" fill="white"/><rect x="34" y="34" width="62" height="19" rx="8" fill="white"/><line x1="34" y1="56" x2="96" y2="56" stroke="#B00000" stroke-width="4" opacity=".65"/><line x1="48" y1="27" x2="48" y2="43" stroke="white" stroke-width="8" stroke-linecap="round"/><line x1="82" y1="27" x2="82" y2="43" stroke="white" stroke-width="8" stroke-linecap="round"/><rect x="47" y="65" width="10" height="10" rx="2" fill="#F44336" opacity=".65"/><rect x="63" y="65" width="10" height="10" rx="2" fill="#F44336" opacity=".65"/><rect x="47" y="81" width="10" height="10" rx="2" fill="#F44336" opacity=".65"/><rect x="63" y="81" width="10" height="10" rx="2" fill="#F44336" opacity=".65"/></g><g filter="url(#shadow)"><circle cx="93" cy="93" r="22" fill="white"/><path d="M93 80v14l10 8" fill="none" stroke="#B00000" stroke-width="5" stroke-linecap="round" stroke-linejoin="round"/></g>
<style>line{stroke:white;stroke-width:5;stroke-linecap:round;opacity:.75}</style>
</svg>