<svg xmlns="http://www.w3.org/2000/svg" viewBox="0 0 128 128" width="128" height="128" role="img" aria-label="Telefona">
<defs>
<radialGradient id="bg" cx="35%" cy="25%" r="80%"><stop offset="0" stop-color="#26C6DA"/><stop offset=".55" stop-color="#00838F"/><stop offset="1" stop-color="#00838F"/></radialGradient>
<linearGradient id="pencil" x1="0" y1="0" x2="1" y2="1"><stop offset="0" stop-color="#90CAF9"/><stop offset="1" stop-color="#0D47A1"/></linearGradient>
<filter id="shadow" x="-30%" y="-30%" width="160%" height="160%"><feDropShadow dx="0" dy="4" stdDeviation="3" flood-color="#000" flood-opacity=".25"/></filter>
</defs>
<circle cx="64" cy="64" r="60" fill="url(#bg)"/>
<circle cx="64" cy="64" r="57" fill="none" stroke="white" stroke-width="4" opacity=".9"/>
<circle cx="64" cy="64" r="50" fill="none" stroke="rgba(255,255,255,.35)" stroke-width="2"/>
<ellipse cx="43" cy="27" rx="23" ry="10" fill="white" opacity=".22" transform="rotate(-28 43 27)"/>
<g filter="url(#shadow)"><path d="M44 40c-8 6-11 18-4 34 8 19 25 36 44 44 16 7 28 4 34-4l-16-18c-4 3-9 4-14 2-12-5-27-20-32-32-2-5-1-10 2-14z" fill="white"/><path d="M88 45c11 3 20 12 23 23M92 30c18 5 32 19 37 37" fill="none" stroke="white" stroke-width="6" stroke-linecap="round"/></g>
<style>line{stroke:white;stroke-width:5;stroke-linecap:round;opacity:.75}</style>
</svg>