<svg xmlns="http://www.w3.org/2000/svg" viewBox="0 0 128 128" width="128" height="128" role="img" aria-label="Protocolla">
<defs>
<radialGradient id="bg" cx="35%" cy="25%" r="80%"><stop offset="0" stop-color="#FFB300"/><stop offset=".55" stop-color="#EF6C00"/><stop offset="1" stop-color="#EF6C00"/></radialGradient>
<linearGradient id="pencil" x1="0" y1="0" x2="1" y2="1"><stop offset="0" stop-color="#90CAF9"/><stop offset="1" stop-color="#0D47A1"/></linearGradient>
<filter id="shadow" x="-30%" y="-30%" width="160%" height="160%"><feDropShadow dx="0" dy="4" stdDeviation="3" flood-color="#000" flood-opacity=".25"/></filter>
</defs>
<circle cx="64" cy="64" r="60" fill="url(#bg)"/>
<circle cx="64" cy="64" r="57" fill="none" stroke="white" stroke-width="4" opacity=".9"/>
<circle cx="64" cy="64" r="50" fill="none" stroke="rgba(255,255,255,.35)" stroke-width="2"/>
<ellipse cx="43" cy="27" rx="23" ry="10" fill="white" opacity=".22" transform="rotate(-28 43 27)"/>
<g filter="url(#shadow)"><rect x="37" y="30" width="54" height="72" rx="7" fill="white"/><path d="M81 30h10v10" fill="#FFE4BE"/><line x1="48" y1="49" x2="76" y2="49"/><line x1="48" y1="62" x2="78" y2="62"/><line x1="48" y1="75" x2="68" y2="75"/><rect x="47" y="87" width="33" height="11" rx="3" fill="none" stroke="#EF6C00" stroke-width="3"/><text x="51" y="96" font-size="8" font-family="Arial" font-weight="700" fill="#EF6C00">N°123</text></g><g filter="url(#shadow)"><path d="M90 72l24 8v18c0 14-10 22-24 28-14-6-24-14-24-28V80z" fill="#FF9800" stroke="white" stroke-width="6"/><path d="M80 97l8 8 18-22" fill="none" stroke="white" stroke-width="7" stroke-linecap="round" stroke-linejoin="round"/></g>
<style>line{stroke:white;stroke-width:5;stroke-linecap:round;opacity:.75}</style>
</svg>