<svg xmlns="http://www.w3.org/2000/svg" viewBox="0 0 128 128" width="128" height="128" role="img" aria-label="Firma">
<defs>
<radialGradient id="bg" cx="35%" cy="25%" r="80%"><stop offset="0" stop-color="#5BE36C"/><stop offset=".55" stop-color="#0B7D2B"/><stop offset="1" stop-color="#0B7D2B"/></radialGradient>
<linearGradient id="pencil" x1="0" y1="0" x2="1" y2="1"><stop offset="0" stop-color="#90CAF9"/><stop offset="1" stop-color="#0D47A1"/></linearGradient>
<filter id="shadow" x="-30%" y="-30%" width="160%" height="160%"><feDropShadow dx="0" dy="4" stdDeviation="3" flood-color="#000" flood-opacity=".25"/></filter>
</defs>
<circle cx="64" cy="64" r="60" fill="url(#bg)"/>
<circle cx="64" cy="64" r="57" fill="none" stroke="white" stroke-width="4" opacity=".9"/>
<circle cx="64" cy="64" r="50" fill="none" stroke="rgba(255,255,255,.35)" stroke-width="2"/>
<ellipse cx="43" cy="27" rx="23" ry="10" fill="white" opacity=".22" transform="rotate(-28 43 27)"/>
<path filter="url(#shadow)" d="M32 80c18-32 24-27 18 2s22-43 32-10 20-5 22-10" fill="none" stroke="white" stroke-width="8" stroke-linecap="round"/><path d="M30 98h64" stroke="white" stroke-width="6" stroke-linecap="round" opacity=".9"/><g filter="url(#shadow)" transform="rotate(25 91 46)"><path d="M84 28h15v42l-7 12-8-12z" fill="white"/><circle cx="91.5" cy="62" r="2.7" fill="#0B7D2B"/></g><g filter="url(#shadow)"><circle cx="99" cy="96" r="15" fill="#9BE34A"/><path d="M91 96l6 6 12-14" fill="none" stroke="white" stroke-width="5" stroke-linecap="round" stroke-linejoin="round"/></g>
<style>line{stroke:white;stroke-width:5;stroke-linecap:round;opacity:.75}</style>
</svg>