<svg xmlns="http://www.w3.org/2000/svg" viewBox="0 0 128 128" width="128" height="128" role="img" aria-label="Redigi">
<defs>
<radialGradient id="bg" cx="35%" cy="25%" r="80%"><stop offset="0" stop-color="#42A5F5"/><stop offset=".55" stop-color="#0D47A1"/><stop offset="1" stop-color="#0D47A1"/></radialGradient>
<linearGradient id="pencil" x1="0" y1="0" x2="1" y2="1"><stop offset="0" stop-color="#90CAF9"/><stop offset="1" stop-color="#0D47A1"/></linearGradient>
<filter id="shadow" x="-30%" y="-30%" width="160%" height="160%"><feDropShadow dx="0" dy="4" stdDeviation="3" flood-color="#000" flood-opacity=".25"/></filter>
</defs>
<circle cx="64" cy="64" r="60" fill="url(#bg)"/>
<circle cx="64" cy="64" r="57" fill="none" stroke="white" stroke-width="4" opacity=".9"/>
<circle cx="64" cy="64" r="50" fill="none" stroke="rgba(255,255,255,.35)" stroke-width="2"/>
<ellipse cx="43" cy="27" rx="23" ry="10" fill="white" opacity=".22" transform="rotate(-28 43 27)"/>
<g filter="url(#shadow)"><rect x="42" y="35" width="52" height="68" rx="8" fill="white" opacity=".96"/><path d="M84 35h10v10" fill="#D9E8FF"/><line x1="53" y1="52" x2="78" y2="52"/><line x1="53" y1="65" x2="74" y2="65"/><line x1="53" y1="78" x2="70" y2="78"/><line x1="53" y1="91" x2="63" y2="91"/></g><g filter="url(#shadow)" transform="rotate(35 80 70)"><rect x="72" y="28" width="14" height="70" rx="5" fill="url(#pencil)"/><path d="M72 96h14l-7 16z" fill="white"/><path d="M76 108h6l-3 7z" fill="#0D47A1"/><rect x="72" y="27" width="14" height="8" rx="3" fill="white" opacity=".9"/></g>
<style>line{stroke:white;stroke-width:5;stroke-linecap:round;opacity:.75}</style>
</svg>