<svg xmlns="http://www.w3.org/2000/svg" viewBox="0 0 128 128" width="128" height="128" role="img" aria-label="Allegati">
<defs>
<radialGradient id="bg" cx="35%" cy="25%" r="80%"><stop offset="0" stop-color="#90A4AE"/><stop offset=".55" stop-color="#37474F"/><stop offset="1" stop-color="#37474F"/></radialGradient>
<linearGradient id="pencil" x1="0" y1="0" x2="1" y2="1"><stop offset="0" stop-color="#90CAF9"/><stop offset="1" stop-color="#0D47A1"/></linearGradient>
<filter id="shadow" x="-30%" y="-30%" width="160%" height="160%"><feDropShadow dx="0" dy="4" stdDeviation="3" flood-color="#000" flood-opacity=".25"/></filter>
</defs>
<circle cx="64" cy="64" r="60" fill="url(#bg)"/>
<circle cx="64" cy="64" r="57" fill="none" stroke="white" stroke-width="4" opacity=".9"/>
<circle cx="64" cy="64" r="50" fill="none" stroke="rgba(255,255,255,.35)" stroke-width="2"/>
<ellipse cx="43" cy="27" rx="23" ry="10" fill="white" opacity=".22" transform="rotate(-28 43 27)"/>
<g filter="url(#shadow)"><rect x="51" y="34" width="48" height="66" rx="7" fill="white" opacity=".85"/><rect x="35" y="48" width="54" height="66" rx="8" fill="white"/><path d="M78 48h11v11" fill="#DFE7EC"/><line x1="54" y1="79" x2="76" y2="79"/><line x1="54" y1="92" x2="76" y2="92"/><path d="M42 78l28-28c10-10 25 5 15 15L58 92c-7 7-18-4-11-11l24-24c4-4 10 2 6 6L55 85" fill="none" stroke="#FFFFFF" stroke-width="10" stroke-linecap="round"/><path d="M42 78l28-28c10-10 25 5 15 15L58 92c-7 7-18-4-11-11l24-24c4-4 10 2 6 6L55 85" fill="none" stroke="#546E7A" stroke-width="5" stroke-linecap="round"/></g>
<style>line{stroke:white;stroke-width:5;stroke-linecap:round;opacity:.75}</style>
</svg>