<svg xmlns="http://www.w3.org/2000/svg" viewBox="0 0 128 128" width="128" height="128" role="img" aria-label="Fine">
<defs>
<radialGradient id="bg" cx="35%" cy="25%" r="80%"><stop offset="0" stop-color="#7EE000"/><stop offset=".55" stop-color="#1B8E13"/><stop offset="1" stop-color="#1B8E13"/></radialGradient>
<linearGradient id="pencil" x1="0" y1="0" x2="1" y2="1"><stop offset="0" stop-color="#90CAF9"/><stop offset="1" stop-color="#0D47A1"/></linearGradient>
<filter id="shadow" x="-30%" y="-30%" width="160%" height="160%"><feDropShadow dx="0" dy="4" stdDeviation="3" flood-color="#000" flood-opacity=".25"/></filter>
</defs>
<circle cx="64" cy="64" r="60" fill="url(#bg)"/>
<circle cx="64" cy="64" r="57" fill="none" stroke="white" stroke-width="4" opacity=".9"/>
<circle cx="64" cy="64" r="50" fill="none" stroke="rgba(255,255,255,.35)" stroke-width="2"/>
<ellipse cx="43" cy="27" rx="23" ry="10" fill="white" opacity=".22" transform="rotate(-28 43 27)"/>
<g filter="url(#shadow)"><line x1="43" y1="31" x2="43" y2="101" stroke="white" stroke-width="8" stroke-linecap="round"/><path d="M47 36c18-9 33 9 52 0v38c-19 9-34-9-52 0z" fill="white"/><path d="M62 42v36M80 38v36M47 55h53" stroke="#1B8E13" stroke-width="5" opacity=".9"/></g><g filter="url(#shadow)"><circle cx="95" cy="96" r="17" fill="white"/><path d="M86 96l7 7 14-17" fill="none" stroke="#28A428" stroke-width="6" stroke-linecap="round" stroke-linejoin="round"/></g>
<style>line{stroke:white;stroke-width:5;stroke-linecap:round;opacity:.75}</style>
</svg>